<svg width="103" height="100" viewBox="0 0 103 100" fill="none" xmlns="http://www.w3.org/2000/svg">
<path d="M72.9629 29.1667H94.1832V70.8334H72.9629V79.1667C72.9629 80.2718 73.41 81.3316 74.2059 82.113C75.0018 82.8944 76.0813 83.3334 77.2069 83.3334H85.6951V91.6667H75.0849C72.7506 91.6667 68.7188 89.7917 68.7188 87.5C68.7188 89.7917 64.6869 91.6667 62.3527 91.6667H51.7425V83.3334H60.2306C61.3562 83.3334 62.4357 82.8944 63.2316 82.113C64.0276 81.3316 64.4747 80.2718 64.4747 79.1667V20.8334C64.4747 19.7283 64.0276 18.6685 63.2316 17.8871C62.4357 17.1057 61.3562 16.6667 60.2306 16.6667H51.7425V8.33337H62.3527C64.6869 8.33337 68.7188 10.2084 68.7188 12.5C68.7188 10.2084 72.7506 8.33337 75.0849 8.33337H85.6951V16.6667H77.2069C76.0813 16.6667 75.0018 17.1057 74.2059 17.8871C73.41 18.6685 72.9629 19.7283 72.9629 20.8334V29.1667ZM9.30176 29.1667H55.9866V37.5H17.7899V62.5H55.9866V70.8334H9.30176V29.1667ZM85.6951 62.5V37.5H72.9629V62.5H85.6951ZM36.8882 50C36.8882 48.3424 36.2175 46.7527 35.0236 45.5806C33.8298 44.4085 32.2105 43.75 30.5221 43.75C28.8337 43.75 27.2145 44.4085 26.0206 45.5806C24.8267 46.7527 24.156 48.3424 24.156 50C24.156 51.6576 24.8267 53.2474 26.0206 54.4195C27.2145 55.5916 28.8337 56.25 30.5221 56.25C32.2105 56.25 33.8298 55.5916 35.0236 54.4195C36.2175 53.2474 36.8882 51.6576 36.8882 50ZM55.9866 45.375C53.3977 43.0417 49.3658 43.25 46.9891 45.8334C44.6124 48.3334 44.8246 52.2917 47.4984 54.625C49.8327 56.7917 53.5674 56.7917 55.9866 54.625V45.375Z" fill="#E4E5F1"/>
</svg>
